<?xml version="1.0" standalone="no"?>
<!DOCTYPE svg PUBLIC "-//W3C//DTD SVG 20010904//EN"
 "http://www.w3.org/TR/2001/REC-SVG-20010904/DTD/svg10.dtd">
<svg version="1.0" xmlns="http://www.w3.org/2000/svg"
 width="700.000000pt" height="700.000000pt" viewBox="0 0 700.000000 700.000000"
 preserveAspectRatio="xMidYMid meet">
<metadata>
Created by potrace 1.14, written by Peter Selinger 2001-2017
</metadata>
<g transform="translate(0.000000,700.000000) scale(0.100000,-0.100000)"
fill="#000000" stroke="none">
<path d="M3100 6994 c-14 -2 -59 -9 -100 -15 -404 -57 -803 -265 -1091 -566
-255 -268 -419 -584 -493 -950 l-23 -117 -82 -3 c-138 -4 -239 -68 -280 -178
-28 -72 -31 -470 -4 -554 21 -69 102 -154 163 -172 22 -7 40 -16 40 -20 0 -4
-20 -36 -44 -71 -244 -351 -408 -803 -443 -1218 -3 -36 -6 -74 -8 -85 -2 -11
-4 -56 -4 -100 l-1 -80 -45 -28 c-246 -156 -369 -465 -296 -748 24 -94 65
-177 129 -262 48 -63 49 -66 41 -113 -8 -52 -5 -185 6 -244 32 -181 125 -381
263 -565 82 -109 272 -288 394 -369 261 -174 503 -244 737 -213 66 8 75 7 94
-11 125 -113 541 -254 847 -287 36 -4 74 -10 85 -12 37 -9 539 -11 615 -3 41
5 104 12 140 15 53 6 271 49 354 70 140 35 348 124 454 195 l63 42 66 -9 c237
-35 532 60 790 253 312 234 514 530 594 874 12 50 16 247 6 295 -3 13 12 42
42 80 25 33 52 71 60 85 29 49 51 99 51 114 0 8 4 17 9 20 5 3 12 26 16 52 3
25 8 56 11 67 7 36 7 149 0 197 -9 57 -44 165 -68 208 -21 39 -22 42 -5 42 23
0 136 59 189 98 85 63 151 145 199 246 88 185 75 423 -32 602 -45 76 -152 181
-227 224 l-62 35 -1 65 c-1 36 -2 83 -4 105 -1 22 -5 92 -9 155 -4 63 -9 126
-11 140 -2 14 -6 63 -10 110 -3 47 -8 101 -10 120 -2 19 -7 60 -10 90 -32 304
-90 544 -191 787 -238 571 -663 1035 -1206 1318 -256 133 -568 233 -843 271
-27 4 -59 9 -70 12 -24 6 -750 11 -785 6z"/>
</g>
</svg>
