<svg xmlns="http://www.w3.org/2000/svg" viewBox="0 0 60 60"><path fill="#d94452" d="M30.789,0h0A22.35,22.35,0,0,1,53.033,19.923a103.744,103.744,0,0,1,.651,10.866H48.158Z"/><path fill="#c93a4c" d="M50.58,26.9a.487.487,0,0,0-.12.01,3.29,3.29,0,0,0-.43.09,3.452,3.452,0,0,0-.43.12,3.16,3.16,0,0,0-.43.16c-.03.01-.05.02-.08.03a21.556,21.556,0,0,0-2.89-5.24,2.373,2.373,0,0,0,1.96-2.33V16.58a2.369,2.369,0,0,0-2.37-2.37h-.84A15.38,15.38,0,0,0,30.82.05L30.79,0h.1c.32,0,.64.01.97.02.6.03,1.2.09,1.8.17A15.38,15.38,0,0,1,46.59,14.21h.85a2.369,2.369,0,0,1,2.37,2.37v3.16a2.354,2.354,0,0,1-1.96,2.32A21.706,21.706,0,0,1,50.58,26.9Z"/><circle cx="51.316" cy="32.368" r="5.526" fill="#e4e8eb"/><path fill="#fdcd56" d="M50.571,35.285a22.086,22.086,0,0,1-6.477,15.657.008.008,0,0,1-.008.008A22.152,22.152,0,1,1,16.567,16.572l.008-.008a22.156,22.156,0,0,1,34,18.721Z"/><path fill="#f5b945" d="M44.086,50.95A22.152,22.152,0,1,1,16.567,16.572,22.155,22.155,0,0,0,44.086,50.95Z"/><circle cx="21.11" cy="30" r="5.526" fill="#fff"/><path fill="#eff3f4" d="M21.917,35.469a5.988,5.988,0,0,1-.807.057,5.526,5.526,0,0,1,0-11.052,5.988,5.988,0,0,1,.807.057,5.529,5.529,0,0,0,0,10.938Z"/><circle cx="21.11" cy="30" r="2.072" fill="#424852"/><circle cx="36.9" cy="30" r="5.526" fill="#fff"/><path fill="#eff3f4" d="M37.707,35.469a6,6,0,0,1-.807.057,5.526,5.526,0,1,1,0-11.052,6,6,0,0,1,.807.057,5.528,5.528,0,0,0,0,10.938Z"/><circle cx="36.9" cy="30" r="2.072" fill="#424852"/><path fill="#eb5463" d="M28.143,0H29.6A15.395,15.395,0,0,1,45,15.4v4.342a0,0,0,0,1,0,0H11.842a0,0,0,0,1,0,0V16.3A16.3,16.3,0,0,1,28.143,0Z"/><path fill="#d94452" d="M30.845.055A16.286,16.286,0,0,0,15.79,16.3v3.434H11.842V16.3A16.3,16.3,0,0,1,28.145,0h1.46C30.024,0,30.442.016,30.845.055Z"/><rect width="39.474" height="7.895" x="8.684" y="14.211" fill="#e4e8eb" rx="2.368"/><path fill="#cad0d7" d="M13.421,22.105H11.053a2.365,2.365,0,0,1-2.369-2.368V16.579a2.365,2.365,0,0,1,2.369-2.368h2.368a2.365,2.365,0,0,0-2.368,2.368v3.158A2.365,2.365,0,0,0,13.421,22.105Z"/><path fill="#424852" d="M32.368,42.384s-.789,1.579-3.947,1.579-3.947-1.579-3.947-1.579a3.938,3.938,0,0,1,3.947-2.369A3.938,3.938,0,0,1,32.368,42.384Z"/><path fill="#d1d8db" d="M52.689,35.282a23.2,23.2,0,0,1-.134,2.471,5.367,5.367,0,0,1-1.239.142,4.7,4.7,0,0,1-.885-.079,22.247,22.247,0,0,0,.142-2.534,21.919,21.919,0,0,0-1.484-7.974,5.338,5.338,0,0,1,1.942-.45A22.127,22.127,0,0,1,52.689,35.282Z"/><path fill="#f4f6f8" d="M53.684,40.658a5.92,5.92,0,0,0-11.708-1.246,13.435,13.435,0,0,0-4.246,2.905,14.51,14.51,0,0,0-1.344,1.553c-1.784,1.784-4.944,1.919-7.965,1.919s-6.181-.135-7.964-1.919a14.635,14.635,0,0,0-1.345-1.553,13.407,13.407,0,0,0-4.246-2.905,5.92,5.92,0,1,0-9.974,5.432c-.606,2.521.674,6.021,3.478,8.825,2.851,2.852,6.422,4.126,8.951,3.444C19.462,58.833,23.63,60,28.421,60s8.959-1.167,11.1-2.887c2.529.682,6.1-.592,8.951-3.444,2.8-2.8,4.084-6.3,3.478-8.825A5.9,5.9,0,0,0,53.684,40.658Z"/><path fill="#e4e8eb" d="M50.053,50.589A14.119,14.119,0,0,0,51.647,48.7a12.905,12.905,0,0,1-3.173,4.973c-2.85,2.85-6.427,4.129-8.953,3.442C37.382,58.831,33.213,60,28.421,60s-8.96-1.169-11.1-2.89c-2.526.687-6.1-.592-8.952-3.442-2.8-2.8-4.082-6.3-3.474-8.826a5.9,5.9,0,0,1-.063-8.3,5.546,5.546,0,0,0-.095,1.034,5.88,5.88,0,0,0,1.737,4.184c-.608,2.526.671,6.024,3.473,8.826,2.85,2.85,6.427,4.129,8.953,3.442,2.14,1.722,6.308,2.89,11.1,2.89s8.961-1.168,11.1-2.89C43.626,54.718,47.2,53.439,50.053,50.589Z"/><path fill="#f4f6f8" d="M30.125,41.753l3.492.979a7.574,7.574,0,0,0,8.3-3.181l.163-.237a7.992,7.992,0,0,0,1.228-5.788,8.11,8.11,0,0,1-3.253,1.919,7.628,7.628,0,0,1-3.716.206l-4.241-.8a3.545,3.545,0,0,0-4.319,2.516A3.5,3.5,0,0,0,30.125,41.753Z"/><path fill="#e4e8eb" d="M28.005,39.968a3.347,3.347,0,0,0,2.124,1.784l3.489.979a7.562,7.562,0,0,0,8.3-3.182l.166-.237a7.977,7.977,0,0,0,1.224-5.786,8.665,8.665,0,0,1-1.595,1.2A7.837,7.837,0,0,1,40.5,37.734l-.165.236a7.564,7.564,0,0,1-8.3,3.182l-3.489-.979A3.183,3.183,0,0,1,28.005,39.968Z"/><path fill="#f4f6f8" d="M26.715,41.753l-3.492.979a7.575,7.575,0,0,1-8.3-3.181l-.162-.237a7.992,7.992,0,0,1-1.229-5.788,8.11,8.11,0,0,0,3.253,1.919,7.629,7.629,0,0,0,3.716.206l4.241-.8a3.545,3.545,0,0,1,4.319,2.516A3.5,3.5,0,0,1,26.715,41.753Z"/><path fill="#e4e8eb" d="M28.838 39.968a3.347 3.347 0 0 1-2.124 1.784l-3.489.979a7.564 7.564 0 0 1-8.3-3.182l-.165-.237a7.977 7.977 0 0 1-1.224-5.786 8.631 8.631 0 0 0 1.595 1.2 7.837 7.837 0 0 0 1.208 3.008l.165.236a7.564 7.564 0 0 0 8.3 3.182l3.489-.979A3.183 3.183 0 0 0 28.838 39.968zM25.848 26.263H16.374a1 1 0 1 1 0-2h9.474a1 1 0 0 1 0 2zM41.637 26.263H32.163a1 1 0 1 1 0-2h9.474a1 1 0 0 1 0 2z"/><path fill="#f77286" d="M31,2.2S37.2,5.16,38.852,8a8.191,8.191,0,0,0-2.086-4.028C34.9,1.842,31,2.2,31,2.2Z"/></svg>